<svg xmlns="http://www.w3.org/2000/svg" width="640" height="530" viewBox="0 0 640 530" role="img"><title>目録も大きい。それでも速い？</title><style>text{font-family:"Hiragino Sans","Noto Sans JP",sans-serif}</style><rect width="640" height="530" fill="#fffdf7"/><g id="chapter-scene"><text x="28" y="43" font-size="27" fill="#25374b">目録も大きい。それでも速い？</text><text x="28" y="79" font-size="18" fill="#25374b">表のほかに、Indexにも保存場所が必要。</text><rect x="40" y="165" width="17" height="40" rx="2" fill="#79b8c1" stroke="#25374b" stroke-width="2.5"/><rect x="62" y="156" width="17" height="49" rx="2" fill="#e8b359" stroke="#25374b" stroke-width="2.5"/><rect x="84" y="147" width="17" height="58" rx="2" fill="#b6adc9" stroke="#25374b" stroke-width="2.5"/><rect x="106" y="165" width="17" height="40" rx="2" fill="#79b8c1" stroke="#25374b" stroke-width="2.5"/><rect x="128" y="156" width="17" height="49" rx="2" fill="#e8b359" stroke="#25374b" stroke-width="2.5"/><rect x="150" y="147" width="17" height="58" rx="2" fill="#b6adc9" stroke="#25374b" stroke-width="2.5"/><rect x="172" y="165" width="17" height="40" rx="2" fill="#79b8c1" stroke="#25374b" stroke-width="2.5"/><rect x="194" y="156" width="17" height="49" rx="2" fill="#e8b359" stroke="#25374b" stroke-width="2.5"/><rect x="216" y="147" width="17" height="58" rx="2" fill="#b6adc9" stroke="#25374b" stroke-width="2.5"/><rect x="238" y="165" width="17" height="40" rx="2" fill="#79b8c1" stroke="#25374b" stroke-width="2.5"/><path d="M32 208 h232" fill="none" stroke="#25374b" stroke-width="3" stroke-linecap="round" stroke-linejoin="round"/><rect x="40" y="243" width="17" height="40" rx="2" fill="#79b8c1" stroke="#25374b" stroke-width="2.5"/><rect x="62" y="234" width="17" height="49" rx="2" fill="#e8b359" stroke="#25374b" stroke-width="2.5"/><rect x="84" y="225" width="17" height="58" rx="2" fill="#b6adc9" stroke="#25374b" stroke-width="2.5"/><rect x="106" y="243" width="17" height="40" rx="2" fill="#79b8c1" stroke="#25374b" stroke-width="2.5"/><rect x="128" y="234" width="17" height="49" rx="2" fill="#e8b359" stroke="#25374b" stroke-width="2.5"/><rect x="150" y="225" width="17" height="58" rx="2" fill="#b6adc9" stroke="#25374b" stroke-width="2.5"/><rect x="172" y="243" width="17" height="40" rx="2" fill="#79b8c1" stroke="#25374b" stroke-width="2.5"/><rect x="194" y="234" width="17" height="49" rx="2" fill="#e8b359" stroke="#25374b" stroke-width="2.5"/><rect x="216" y="225" width="17" height="58" rx="2" fill="#b6adc9" stroke="#25374b" stroke-width="2.5"/><rect x="238" y="243" width="17" height="40" rx="2" fill="#79b8c1" stroke="#25374b" stroke-width="2.5"/><path d="M32 286 h232" fill="none" stroke="#25374b" stroke-width="3" stroke-linecap="round" stroke-linejoin="round"/><rect x="360" y="138" width="222" height="215" rx="10" fill="#fff0d3" stroke="#25374b" stroke-width="2.5"/><text x="384" y="177" font-size="24" fill="#25374b">題名の目録</text><rect x="382" y="198" width="173" height="36" rx="5" fill="#e9f3f4" stroke="#25374b" stroke-width="2.5"/><text x="394" y="223" font-size="18" fill="#25374b">あ … 場所</text><rect x="382" y="241" width="173" height="36" rx="5" fill="#fff0d3" stroke="#25374b" stroke-width="2.5"/><text x="394" y="266" font-size="18" fill="#25374b">か … 場所</text><rect x="382" y="284" width="173" height="36" rx="5" fill="#efedf5" stroke="#25374b" stroke-width="2.5"/><text x="394" y="309" font-size="18" fill="#25374b">さ … 場所</text><circle cx="320" cy="300" r="30" fill="#e9f3f4" fill-opacity=".75" stroke="#25374b" stroke-width="5"/><path d="M343 323 l30 30" fill="none" stroke="#25374b" stroke-width="3" stroke-linecap="round" stroke-linejoin="round"/><rect x="24" y="420" width="592" height="70" rx="10" fill="#fff0d3" stroke="#25374b" stroke-width="2.5"/><text x="43" y="463" font-size="21" fill="#25374b">目録を全部読まずに、目的の場所へ行ける？</text><text x="28" y="515" font-size="14" fill="#25374b">学ぶきっかけを描く絵 ／ 実行結果や内部配置の実測ではありません</text></g></svg>