<svg xmlns="http://www.w3.org/2000/svg" width="640" height="730" viewBox="0 0 640 730" role="img" aria-labelledby="title">
  <title id="title">読み終えた順に、並べたい</title>
  <defs>
    <marker id="flow" markerWidth="10" markerHeight="10" refX="9" refY="5" orient="auto"><path d="M0 0L10 5L0 10z" fill="#277b74"/></marker>
    <marker id="req" markerWidth="10" markerHeight="10" refX="9" refY="5" orient="auto"><path d="M0 0L10 5L0 10" fill="none" stroke="#945e11" stroke-width="2"/></marker>
    <marker id="ref" markerWidth="9" markerHeight="9" refX="8" refY="4.5" orient="auto"><path d="M0 0L9 4.5L0 9z" fill="#7d93a3"/></marker>
  </defs>
  <style>
text{font-family:"Hiragino Sans","Noto Sans JP",sans-serif;font-size:24px;fill:#243b50}
.h{font-size:30px;font-weight:700}.b{font-weight:700}.s{font-size:22px}.m{font-size:22px;fill:#566c7b}
.mono{font-family:ui-monospace,Menlo,monospace;font-size:22px}.tag{font-size:22px;font-weight:700;fill:#fff}
.teal{fill:#176e65}.brown{fill:#945e11}.real{fill:#176e65}
.panel{fill:#fff;stroke:#cedae1;stroke-width:2}.node{fill:#ecf2f8;stroke:#56738a;stroke-width:2}
.row{fill:#fff;stroke:#448b7c;stroke-width:2}.match{fill:#fff;stroke:#176e65;stroke-width:4}
.page{fill:#f7fbf9;stroke:#6d9f94;stroke-width:2}.ipage{fill:#f4f6f8;stroke:#6b7f8e;stroke-width:2}
.band{fill:#d5dde3;stroke:#92a7b5;stroke-width:2}.skip{fill:none;stroke:#b5c2cc;stroke-width:2;stroke-dasharray:6 5}
.hot{fill:#fff0d5;stroke:#b88020;stroke-width:4}.ghost{fill:#f5f7f9;stroke:#b5c2cc;stroke-width:2;stroke-dasharray:6 5}
.flow{fill:none;stroke:#277b74;stroke-width:3;marker-end:url(#flow)}.req{fill:none;stroke:#945e11;stroke-width:3;stroke-dasharray:8 6;marker-end:url(#req)}
.ref{fill:none;stroke:#7d93a3;stroke-width:2;marker-end:url(#ref)}.step{fill:#fff;stroke:#243b50;stroke-width:2.5}
.spine{fill:#e9f3f4;stroke:#243b50;stroke-width:1.5}
.work{fill:#fff;stroke:#56738a;stroke-width:2;stroke-dasharray:8 5}.val{fill:#dcefe8;stroke:#448b7c;stroke-width:2}.buffer{fill:#eaf6f1;stroke:#6d9f94;stroke-width:2}
.route{fill:#f4f6f8;stroke:#243b50;stroke-width:3}.leader{fill:none;stroke:#56738a;stroke-width:2}
.storage{fill:#ece7f5;stroke:#735f9f;stroke-width:2}.file{fill:#fff;stroke:#735f9f;stroke-width:2}
  .cmp{fill:#dfe5ea}
.swap{fill:#dcefe8;stroke:#243b50;stroke-width:4}
.big{font-size:56px;font-weight:700}
  </style>
  <rect width="640" height="730" fill="#fffdf7"/>
  <text x="24" y="48" class="h">読み終えた順に、並べたい</text>
  <g id="records">
    <rect x="24" y="72" width="592" height="234" rx="10" class="panel"/>
    <text x="44" y="104" class="s b">読了記録 <tspan class="mono">reading_records</tspan></text>
    <rect x="48" y="120" width="244" height="36" rx="4" class="row"/>
    <text x="62" y="145" class="s">本4・9月16日 10:00</text>
    <rect x="48" y="164" width="244" height="36" rx="4" class="row"/>
    <text x="62" y="189" class="s">本8・9月14日 09:30</text>
    <rect x="48" y="208" width="244" height="36" rx="4" class="row"/>
    <text x="62" y="233" class="s">本5・9月20日 08:00</text>
    <rect x="48" y="252" width="244" height="36" rx="4" class="row"/>
    <text x="62" y="277" class="s">本2・9月20日 08:00</text>
  </g>
  <g id="sort-step">
    <path d="M159 318 V346 H148 L170 362 L192 346 H181 V318 Z" class="step"/>
    <text x="208" y="347" class="s">新しい順に並べる</text>
  </g>
  <g id="recent-screen">
    <rect x="24" y="374" width="592" height="256" rx="10" fill="#fff" stroke="#243b50" stroke-width="2.5"/>
    <path d="M24 412 H616" fill="none" stroke="#243b50" stroke-width="2.5"/>
    <text x="40" y="401" class="s">最近の読了記録</text>
    <rect x="40" y="426" width="260" height="96" rx="6" class="hot"/>
    <rect x="48" y="434" width="244" height="36" rx="4" class="row"/>
    <text x="62" y="459" class="s">本2・9月20日 08:00</text>
    <rect x="48" y="478" width="244" height="36" rx="4" class="row"/>
    <text x="62" y="503" class="s">本5・9月20日 08:00</text>
    <text x="320" y="482" class="s b">同じ日時なら、本の番号順</text>
    <rect x="48" y="534" width="244" height="36" rx="4" class="row"/>
    <text x="62" y="559" class="s">本4・9月16日 10:00</text>
    <rect x="48" y="578" width="244" height="36" rx="4" class="row"/>
    <text x="62" y="603" class="s">本8・9月14日 09:30</text>
  </g>
  <rect x="24" y="650" width="592" height="60" rx="10" fill="#fff0d3" stroke="#243b50" stroke-width="2.5"/>
  <text x="44" y="689" class="b">1週間分（約50万件）なら、どう並べる？</text>
</svg>
