<svg xmlns="http://www.w3.org/2000/svg" width="640" height="832" viewBox="0 0 640 832" role="img" aria-labelledby="title">
  <title id="title">組に分けて、1組ずつ照合する</title>
  <defs>
    <marker id="flow" markerWidth="10" markerHeight="10" refX="9" refY="5" orient="auto"><path d="M0 0L10 5L0 10z" fill="#277b74"/></marker>
    <marker id="req" markerWidth="10" markerHeight="10" refX="9" refY="5" orient="auto"><path d="M0 0L10 5L0 10" fill="none" stroke="#945e11" stroke-width="2"/></marker>
    <marker id="ref" markerWidth="9" markerHeight="9" refX="8" refY="4.5" orient="auto"><path d="M0 0L9 4.5L0 9z" fill="#7d93a3"/></marker>
  </defs>
  <style>
text{font-family:"Hiragino Sans","Noto Sans JP",sans-serif;font-size:24px;fill:#243b50}
.h{font-size:30px;font-weight:700}.b{font-weight:700}.s{font-size:22px}.m{font-size:22px;fill:#566c7b}
.mono{font-family:ui-monospace,Menlo,monospace;font-size:22px}.tag{font-size:22px;font-weight:700;fill:#fff}
.teal{fill:#176e65}.brown{fill:#945e11}.real{fill:#176e65}
.panel{fill:#fff;stroke:#cedae1;stroke-width:2}.node{fill:#ecf2f8;stroke:#56738a;stroke-width:2}
.row{fill:#fff;stroke:#448b7c;stroke-width:2}.match{fill:#fff;stroke:#176e65;stroke-width:4}
.page{fill:#f7fbf9;stroke:#6d9f94;stroke-width:2}.ipage{fill:#f4f6f8;stroke:#6b7f8e;stroke-width:2}
.band{fill:#d5dde3;stroke:#92a7b5;stroke-width:2}.skip{fill:none;stroke:#b5c2cc;stroke-width:2;stroke-dasharray:6 5}
.hot{fill:#fff0d5;stroke:#b88020;stroke-width:4}.ghost{fill:#f5f7f9;stroke:#b5c2cc;stroke-width:2;stroke-dasharray:6 5}
.flow{fill:none;stroke:#277b74;stroke-width:3;marker-end:url(#flow)}.req{fill:none;stroke:#945e11;stroke-width:3;stroke-dasharray:8 6;marker-end:url(#req)}
.ref{fill:none;stroke:#7d93a3;stroke-width:2;marker-end:url(#ref)}.step{fill:#fff;stroke:#243b50;stroke-width:2.5}
.spine{fill:#e9f3f4;stroke:#243b50;stroke-width:1.5}
.work{fill:#fff;stroke:#56738a;stroke-width:2;stroke-dasharray:8 5}.val{fill:#dcefe8;stroke:#448b7c;stroke-width:2}.buffer{fill:#eaf6f1;stroke:#6d9f94;stroke-width:2}
.route{fill:#f4f6f8;stroke:#243b50;stroke-width:3}.leader{fill:none;stroke:#56738a;stroke-width:2}
.storage{fill:#ece7f5;stroke:#735f9f;stroke-width:2}.file{fill:#fff;stroke:#735f9f;stroke-width:2}
  .cmp{fill:#dfe5ea}
.swap{fill:#dcefe8;stroke:#243b50;stroke-width:4}
.big{font-size:56px;font-weight:700}
  </style>
  <rect width="640" height="832" fill="#f5f7f9"/>
  <text x="24" y="48" class="h">組に分けて、1組ずつ照合する</text>
  <g id="frame-1">
    <text x="24" y="104" class="b">① 本を組に分け、2組目は一時ファイルへ</text>
    <text x="24" y="149" class="b">本</text>
    <rect x="80" y="118" width="44" height="44" rx="6" class="val"/>
    <text x="102" y="149" text-anchor="middle" class="b">1</text>
    <rect x="132" y="118" width="44" height="44" rx="6" class="val"/>
    <text x="154" y="149" text-anchor="middle" class="b">2</text>
    <rect x="184" y="118" width="44" height="44" rx="6" class="val"/>
    <text x="206" y="149" text-anchor="middle" class="b">3</text>
    <rect x="236" y="118" width="44" height="44" rx="6" class="val"/>
    <text x="258" y="149" text-anchor="middle" class="b">4</text>
    <rect x="288" y="118" width="44" height="44" rx="6" class="val"/>
    <text x="310" y="149" text-anchor="middle" class="b">5</text>
    <rect x="340" y="118" width="44" height="44" rx="6" class="val"/>
    <text x="362" y="149" text-anchor="middle" class="b">6</text>
    <rect x="392" y="118" width="44" height="44" rx="6" class="val"/>
    <text x="414" y="149" text-anchor="middle" class="b">7</text>
    <rect x="444" y="118" width="44" height="44" rx="6" class="val"/>
    <text x="466" y="149" text-anchor="middle" class="b">8</text>
    <rect x="496" y="118" width="44" height="44" rx="6" class="val"/>
    <text x="518" y="149" text-anchor="middle" class="b">9</text>
    <path d="M60 166 V196" class="flow"/>
    <text x="84" y="188" class="s b teal">偶数は入れる</text>
    <path d="M320 166 V196" class="flow"/>
    <text x="344" y="188" class="s b teal">奇数は書き出す</text>
    <rect x="24" y="200" width="256" height="116" rx="10" class="work"/>
    <text x="40" y="228" class="s b">ハッシュ表（1組目）</text>
    <rect x="36" y="240" width="44" height="44" rx="6" class="val"/>
    <text x="58" y="271" text-anchor="middle" class="b">2</text>
    <rect x="84" y="240" width="44" height="44" rx="6" class="val"/>
    <text x="106" y="271" text-anchor="middle" class="b">4</text>
    <rect x="132" y="240" width="44" height="44" rx="6" class="val"/>
    <text x="154" y="271" text-anchor="middle" class="b">6</text>
    <rect x="180" y="240" width="44" height="44" rx="6" class="val"/>
    <text x="202" y="271" text-anchor="middle" class="b">8</text>
    <rect x="296" y="200" width="320" height="116" rx="12" class="storage"/>
    <text x="312" y="228" class="s b">ストレージ（SSDなど）</text>
    <rect x="308" y="236" width="296" height="34" rx="8" class="file"/>
    <text x="318" y="260" class="s b">2組目の本</text>
    <rect x="436" y="239" width="28" height="28" rx="6" class="val"/>
    <text x="450" y="260" text-anchor="middle" class="s b">1</text>
    <rect x="468" y="239" width="28" height="28" rx="6" class="val"/>
    <text x="482" y="260" text-anchor="middle" class="s b">3</text>
    <rect x="500" y="239" width="28" height="28" rx="6" class="val"/>
    <text x="514" y="260" text-anchor="middle" class="s b">5</text>
    <rect x="532" y="239" width="28" height="28" rx="6" class="val"/>
    <text x="546" y="260" text-anchor="middle" class="s b">7</text>
    <rect x="564" y="239" width="28" height="28" rx="6" class="val"/>
    <text x="578" y="260" text-anchor="middle" class="s b">9</text>
  </g>
  <g id="frame-2">
    <path d="M24 324 H616" fill="none" stroke="#cedae1" stroke-width="2"/>
    <text x="24" y="356" class="b">② 記録も分け、1組目はその場で照合する</text>
    <text x="24" y="401" class="b">記録</text>
    <rect x="80" y="370" width="72" height="44" rx="6" class="row"/>
    <text x="116" y="401" text-anchor="middle">本8</text>
    <rect x="164" y="370" width="72" height="44" rx="6" class="row"/>
    <text x="200" y="401" text-anchor="middle">本3</text>
    <rect x="248" y="370" width="72" height="44" rx="6" class="row"/>
    <text x="284" y="401" text-anchor="middle">本6</text>
    <rect x="332" y="370" width="72" height="44" rx="6" class="row"/>
    <text x="368" y="401" text-anchor="middle">本5</text>
    <path d="M60 418 V448" class="flow"/>
    <text x="84" y="440" class="s b teal">偶数は照合する</text>
    <path d="M320 418 V448" class="flow"/>
    <text x="344" y="440" class="s b teal">奇数は書き出す</text>
    <rect x="24" y="452" width="256" height="116" rx="10" class="work"/>
    <text x="40" y="480" class="s b">ハッシュ表（1組目）</text>
    <rect x="36" y="492" width="44" height="44" rx="6" class="val"/>
    <text x="58" y="523" text-anchor="middle" class="b">2</text>
    <rect x="84" y="492" width="44" height="44" rx="6" class="val"/>
    <text x="106" y="523" text-anchor="middle" class="b">4</text>
    <rect x="132" y="492" width="44" height="44" rx="6" class="match"/>
    <text x="154" y="523" text-anchor="middle" class="b">6</text>
    <text x="154" y="558" text-anchor="middle" class="b teal">✓</text>
    <rect x="180" y="492" width="44" height="44" rx="6" class="match"/>
    <text x="202" y="523" text-anchor="middle" class="b">8</text>
    <text x="202" y="558" text-anchor="middle" class="b teal">✓</text>
    <rect x="296" y="452" width="320" height="116" rx="12" class="storage"/>
    <text x="312" y="480" class="s b">ストレージ（SSDなど）</text>
    <rect x="308" y="488" width="296" height="34" rx="8" class="file"/>
    <text x="318" y="512" class="s b">2組目の本</text>
    <rect x="436" y="491" width="28" height="28" rx="6" class="val"/>
    <text x="450" y="512" text-anchor="middle" class="s b">1</text>
    <rect x="468" y="491" width="28" height="28" rx="6" class="val"/>
    <text x="482" y="512" text-anchor="middle" class="s b">3</text>
    <rect x="500" y="491" width="28" height="28" rx="6" class="val"/>
    <text x="514" y="512" text-anchor="middle" class="s b">5</text>
    <rect x="532" y="491" width="28" height="28" rx="6" class="val"/>
    <text x="546" y="512" text-anchor="middle" class="s b">7</text>
    <rect x="564" y="491" width="28" height="28" rx="6" class="val"/>
    <text x="578" y="512" text-anchor="middle" class="s b">9</text>
    <rect x="308" y="528" width="296" height="34" rx="8" class="file"/>
    <text x="318" y="552" class="s b">2組目の記録</text>
    <rect x="458" y="531" width="52" height="28" rx="6" class="row"/>
    <text x="484" y="552" text-anchor="middle" class="s">本3</text>
    <rect x="516" y="531" width="52" height="28" rx="6" class="row"/>
    <text x="542" y="552" text-anchor="middle" class="s">本5</text>
  </g>
  <g id="frame-3">
    <path d="M24 576 H616" fill="none" stroke="#cedae1" stroke-width="2"/>
    <text x="24" y="608" class="b">③ 2組目の本でハッシュ表を作り直し、照合する</text>
    <path d="M456 704 V658 H150 V700" class="flow"/>
    <text x="303" y="648" text-anchor="middle" class="s b teal">本と記録を読み戻す</text>
    <rect x="24" y="704" width="256" height="116" rx="10" class="work"/>
    <text x="40" y="732" class="s b">ハッシュ表（2組目）</text>
    <rect x="36" y="744" width="44" height="44" rx="6" class="val"/>
    <text x="58" y="775" text-anchor="middle" class="b">1</text>
    <rect x="84" y="744" width="44" height="44" rx="6" class="match"/>
    <text x="106" y="775" text-anchor="middle" class="b">3</text>
    <text x="106" y="810" text-anchor="middle" class="b teal">✓</text>
    <rect x="132" y="744" width="44" height="44" rx="6" class="match"/>
    <text x="154" y="775" text-anchor="middle" class="b">5</text>
    <text x="154" y="810" text-anchor="middle" class="b teal">✓</text>
    <rect x="180" y="744" width="44" height="44" rx="6" class="val"/>
    <text x="202" y="775" text-anchor="middle" class="b">7</text>
    <rect x="228" y="744" width="44" height="44" rx="6" class="val"/>
    <text x="250" y="775" text-anchor="middle" class="b">9</text>
    <rect x="296" y="704" width="320" height="116" rx="12" class="storage"/>
    <text x="312" y="732" class="s b">ストレージ（SSDなど）</text>
    <rect x="308" y="740" width="296" height="34" rx="8" class="file"/>
    <text x="318" y="764" class="s b">2組目の本</text>
    <rect x="436" y="743" width="28" height="28" rx="6" class="val"/>
    <text x="450" y="764" text-anchor="middle" class="s b">1</text>
    <rect x="468" y="743" width="28" height="28" rx="6" class="val"/>
    <text x="482" y="764" text-anchor="middle" class="s b">3</text>
    <rect x="500" y="743" width="28" height="28" rx="6" class="val"/>
    <text x="514" y="764" text-anchor="middle" class="s b">5</text>
    <rect x="532" y="743" width="28" height="28" rx="6" class="val"/>
    <text x="546" y="764" text-anchor="middle" class="s b">7</text>
    <rect x="564" y="743" width="28" height="28" rx="6" class="val"/>
    <text x="578" y="764" text-anchor="middle" class="s b">9</text>
    <rect x="308" y="780" width="296" height="34" rx="8" class="file"/>
    <text x="318" y="804" class="s b">2組目の記録</text>
    <rect x="458" y="783" width="52" height="28" rx="6" class="row"/>
    <text x="484" y="804" text-anchor="middle" class="s">本3</text>
    <rect x="516" y="783" width="52" height="28" rx="6" class="row"/>
    <text x="542" y="804" text-anchor="middle" class="s">本5</text>
  </g>
</svg>
